<svg width="358" height="50" viewBox="0 0 358 50" fill="none" xmlns="http://www.w3.org/2000/svg">
<rect width="358" height="50" rx="2" fill="black"/>
<path d="M164.229 18.9091L168.959 26.6051V32H170.544V26.6051L175.274 18.9091H173.459L169.828 25.0199H169.675L166.044 18.9091H164.229ZM179.848 32.2045C181.842 32.2045 183.299 31.2074 183.76 29.7244L182.302 29.3153C181.919 30.3381 181.03 30.8494 179.848 30.8494C178.077 30.8494 176.856 29.7053 176.786 27.6023H183.913V26.9631C183.913 23.3068 181.74 22.054 179.694 22.054C177.035 22.054 175.271 24.1506 175.271 27.1676C175.271 30.1847 177.01 32.2045 179.848 32.2045ZM176.786 26.2983C176.888 24.7706 177.968 23.4091 179.694 23.4091C181.331 23.4091 182.379 24.6364 182.379 26.2983H176.786ZM193.162 24.3807C192.689 22.9872 191.628 22.054 189.685 22.054C187.614 22.054 186.08 23.2301 186.08 24.892C186.08 26.2472 186.885 27.1548 188.688 27.5767L190.324 27.9602C191.315 28.1903 191.782 28.6634 191.782 29.3409C191.782 30.1847 190.887 30.875 189.481 30.875C188.247 30.875 187.473 30.3445 187.205 29.2898L185.773 29.6477C186.125 31.3161 187.499 32.2045 189.506 32.2045C191.788 32.2045 193.341 30.9581 193.341 29.2642C193.341 27.8963 192.485 27.0334 190.733 26.6051L189.276 26.2472C188.113 25.9595 187.589 25.5696 187.589 24.8153C187.589 23.9716 188.483 23.358 189.685 23.358C191.002 23.358 191.545 24.0866 191.807 24.7642L193.162 24.3807Z" fill="white"/>
</svg>
