<svg width="358" height="51" viewBox="0 0 358 51" fill="none" xmlns="http://www.w3.org/2000/svg">
<rect width="358" height="50.152" rx="2" fill="black"/>
<path d="M163.108 22.6628C162.622 19.9782 160.474 18.393 157.841 18.393C154.491 18.393 152.062 20.9753 152.062 25.1174C152.062 29.2594 154.491 31.8418 157.841 31.8418C160.474 31.8418 162.622 30.2566 163.108 27.5719H161.522C161.139 29.3873 159.579 30.3589 157.841 30.3589C155.463 30.3589 153.596 28.518 153.596 25.1174C153.596 21.7168 155.463 19.8759 157.841 19.8759C159.579 19.8759 161.139 20.8475 161.522 22.6628H163.108ZM165.465 31.6628H166.973V25.4498C166.973 24.1202 168.021 23.1486 169.453 23.1486C169.856 23.1486 170.271 23.2253 170.374 23.2509V21.7168C170.201 21.704 169.805 21.6913 169.581 21.6913C168.405 21.6913 167.382 22.356 167.024 23.3276H166.922V21.8447H165.465V31.6628ZM175.98 31.8674C177.974 31.8674 179.431 30.8702 179.892 29.3873L178.434 28.9782C178.051 30.0009 177.162 30.5123 175.98 30.5123C174.209 30.5123 172.988 29.3681 172.918 27.2651H180.045V26.6259C180.045 22.9697 177.872 21.7168 175.826 21.7168C173.167 21.7168 171.403 23.8134 171.403 26.8305C171.403 29.8475 173.142 31.8674 175.98 31.8674ZM172.918 25.9611C173.02 24.4334 174.1 23.0719 175.826 23.0719C177.463 23.0719 178.511 24.2992 178.511 25.9611H172.918ZM185.229 31.893C186.942 31.893 187.837 30.9725 188.144 30.3333H188.22V31.6628H189.729V25.1941C189.729 22.0748 187.351 21.7168 186.098 21.7168C184.615 21.7168 182.928 22.2282 182.161 24.018L183.593 24.5293C183.925 23.8134 184.711 23.0464 186.149 23.0464C187.536 23.0464 188.22 23.7814 188.22 25.0407V25.0918C188.22 25.8205 187.479 25.7566 185.689 25.9867C183.867 26.2232 181.879 26.6259 181.879 28.8759C181.879 30.7935 183.362 31.893 185.229 31.893ZM185.459 30.5378C184.257 30.5378 183.388 30.0009 183.388 28.9526C183.388 27.802 184.436 27.4441 185.612 27.2907C186.252 27.214 187.965 27.035 188.22 26.7282V28.1089C188.22 29.3361 187.249 30.5378 185.459 30.5378ZM196.752 21.8447H194.656V19.4924H193.147V21.8447H191.664V23.1231H193.147V29.2594C193.147 30.9725 194.528 31.7907 195.806 31.7907C196.369 31.7907 196.727 31.6884 196.931 31.6117L196.624 30.2566C196.496 30.2822 196.292 30.3333 195.96 30.3333C195.295 30.3333 194.656 30.1288 194.656 28.8503V23.1231H196.752V21.8447ZM203.032 31.8674C205.027 31.8674 206.484 30.8702 206.944 29.3873L205.487 28.9782C205.103 30.0009 204.215 30.5123 203.032 30.5123C201.262 30.5123 200.041 29.3681 199.971 27.2651H207.098V26.6259C207.098 22.9697 204.924 21.7168 202.879 21.7168C200.22 21.7168 198.456 23.8134 198.456 26.8305C198.456 29.8475 200.194 31.8674 203.032 31.8674ZM199.971 25.9611C200.073 24.4334 201.153 23.0719 202.879 23.0719C204.515 23.0719 205.564 24.2992 205.564 25.9611H199.971Z" fill="white"/>
</svg>
