<svg width="41" height="14" viewBox="0 0 41 14" fill="none" xmlns="http://www.w3.org/2000/svg">
<path opacity="0.2" d="M8.53729 3.84466H10.0714C10.0011 1.86952 8.17933 0.392955 5.64808 0.392955C3.1424 0.392955 1.17365 1.85034 1.17365 4.0492C1.17365 5.81341 2.45206 6.86171 4.49751 7.44977L6.10831 7.91C7.48899 8.29352 8.71626 8.77932 8.71626 10.0833C8.71626 11.5151 7.33558 12.4611 5.52024 12.4611C3.96058 12.4611 2.5799 11.7708 2.45206 10.2878H0.815696C0.969105 12.4356 2.70774 13.893 5.52024 13.893C8.53729 13.893 10.2504 12.231 10.2504 10.1089C10.2504 7.65432 7.92365 6.86171 6.56854 6.50375L5.23899 6.1458C4.2674 5.89011 2.70774 5.37875 2.70774 3.9725C2.70774 2.71966 3.85831 1.7992 5.59695 1.7992C7.18217 1.7992 8.38388 2.55347 8.53729 3.84466ZM15.5414 13.893C17.2544 13.893 18.1493 12.9725 18.4561 12.3333H18.5328V13.6628H20.0414V7.19409C20.0414 4.07477 17.6635 3.71682 16.4107 3.71682C14.9277 3.71682 13.2402 4.22818 12.4732 6.01795L13.905 6.52932C14.2374 5.81341 15.0236 5.04636 16.4618 5.04636C17.8489 5.04636 18.5328 5.78145 18.5328 7.04068V7.09182C18.5328 7.82051 17.7914 7.75659 16.0016 7.98671C14.1799 8.22321 12.1919 8.62591 12.1919 10.8759C12.1919 12.7935 13.6749 13.893 15.5414 13.893ZM15.7715 12.5378C14.5698 12.5378 13.7005 12.0009 13.7005 10.9526C13.7005 9.80205 14.7488 9.44409 15.9249 9.29068C16.5641 9.21398 18.2772 9.035 18.5328 8.72818V10.1089C18.5328 11.3361 17.5613 12.5378 15.7715 12.5378ZM30.4716 3.84466H28.8352L26.125 11.6685H26.0227L23.3125 3.84466H21.6761L25.3068 13.6628H26.8409L30.4716 3.84466ZM36.2276 13.8674C38.2219 13.8674 39.6793 12.8702 40.1396 11.3873L38.6822 10.9782C38.2987 12.0009 37.4102 12.5123 36.2276 12.5123C34.457 12.5123 33.2362 11.3681 33.1658 9.26511H40.293V8.62591C40.293 4.96966 38.1197 3.71682 36.0742 3.71682C33.4151 3.71682 31.6509 5.81341 31.6509 8.83046C31.6509 11.8475 33.3896 13.8674 36.2276 13.8674ZM33.1658 7.96114C33.2681 6.43344 34.3484 5.07193 36.0742 5.07193C37.7106 5.07193 38.7589 6.2992 38.7589 7.96114H33.1658Z" fill="black"/>
</svg>
